<svg xmlns="http://www.w3.org/2000/svg" width="219.002" height="40.999"><path fill="#00356A" d="M17.845 5.062C8.044 5.069.034 13.097 0 22.943c-.035 9.982 7.922 18.035 17.839 18.056 9.878.021 17.91-8.01 17.925-17.92.016-9.93-8.036-18.025-17.919-18.017zm-.034 33.303c-8.475-.032-15.232-6.893-15.193-15.429.037-8.419 6.906-15.27 15.284-15.243 8.411.026 15.254 6.922 15.246 15.365-.008 8.49-6.869 15.339-15.337 15.307zm145.138-24.804c-4.66.498-8.524 4.832-8.483 9.705.026 3.064.04 6.13.056 9.196.006 1.274-.023 2.549.012 3.823.037 1.389.858 2.216 2.149 2.238 1.417.025 2.3-.819 2.32-2.263.022-1.554.005-3.108.005-4.674.106-.025.129-.039.143-.032.174.083.347.171.52.255 3.515 1.71 6.943 1.538 10.107-.753 3.191-2.311 4.492-5.571 3.877-9.465-.809-5.116-5.51-8.585-10.706-8.03zm1.217 14.805c-2.893.004-5.156-2.264-5.157-5.168-.001-2.845 2.286-5.158 5.113-5.166 2.855-.009 5.158 2.307 5.158 5.186-.001 2.858-2.272 5.145-5.114 5.148zm28.318-2.597c-1.086-.713-2.153-.47-3.153.719-1.569 1.864-4.033 2.44-6.181 1.443-2.142-.994-3.29-3.26-2.872-5.672.543-3.146 4.14-5.097 7.057-3.736-.318.278-.574.503-.833.727-1.174 1.015-2.366 2.008-3.516 3.047-1.084.981-1.157 2.243-.252 3.265.885.998 2.115 1.072 3.209.138a622.332 622.332 0 0 0 6.399-5.543 2.341 2.341 0 0 0 .194-3.363c-2.286-2.49-5.143-3.605-8.471-3.163-5.636.749-9.386 6.046-8.172 11.609.881 4.039 3.454 6.643 7.495 7.479 3.927.811 7.198-.533 9.682-3.702.872-1.113.596-2.471-.586-3.248zm-109.94.108c-1.115-.805-2.219-.586-3.258.648-1.577 1.872-4.013 2.441-6.176 1.442-2.147-.99-3.33-3.247-2.873-5.666.655-3.47 4.322-4.99 7.036-3.739-.206.184-.362.33-.524.469-1.271 1.098-2.56 2.178-3.809 3.3-1.076.967-1.151 2.251-.251 3.268.878.997 2.122 1.068 3.209.138a735.455 735.455 0 0 0 6.35-5.501c1.049-.919 1.159-2.392.245-3.406-1.768-1.961-3.98-3.093-6.607-3.229-6.413-.334-11.22 5.203-10.084 11.551.661 3.693 3.655 6.771 7.406 7.61 3.676.824 7.776-.737 9.865-3.753.755-1.092.541-2.358-.529-3.132zm59.982-12.382c-5.344.013-9.719 4.418-9.711 9.78.008 5.365 4.396 9.773 9.727 9.768 5.375-.006 9.753-4.415 9.744-9.814-.01-5.349-4.42-9.747-9.76-9.734zm.054 14.995a5.216 5.216 0 0 1-5.251-5.177c-.022-2.899 2.339-5.286 5.224-5.281a5.207 5.207 0 0 1 5.202 5.222c.009 2.903-2.288 5.227-5.175 5.236zm-38.438-7.553c-.951-4.542-4.806-7.523-9.485-7.367-4.292.143-8.008 3.531-8.582 7.966-.215 1.661-.154 3.357-.218 5.039l.062.001v3.952l.001.13c.023 1.43.858 2.325 2.192 2.356 1.314.03 2.177-.788 2.294-2.192.028-.343.014-.691.017-1.036.018-2.44-.032-4.882.074-7.317.092-2.118 1.733-3.928 3.682-4.3 2.186-.415 4.247.555 5.125 2.551.337.766.525 1.654.548 2.494.067 2.459.008 4.922.017 7.383.006 1.448.844 2.341 2.17 2.365 1.44.026 2.331-.86 2.347-2.399.026-2.44.04-4.879.014-7.319a11.945 11.945 0 0 0-.258-2.307zm110.836.333c-.766-4.454-4.55-7.674-8.981-7.688-4.492-.015-8.482 3.136-9.042 7.636-.401 3.233-.243 6.545-.207 9.82.016 1.345 1.057 2.092 2.36 2.011 1.264-.079 2.071-.973 2.076-2.337.008-2.334-.005-4.665.008-6.997.003-.516.041-1.036.12-1.545.344-2.213 2.118-3.908 4.178-4.021 2.442-.136 4.303 1.151 4.934 3.468.163.595.24 1.232.245 1.85.021 2.419-.024 4.838-.001 7.257.014 1.435.907 2.312 2.24 2.304 1.341-.011 2.206-.892 2.228-2.317.022-1.404.005-2.808.005-4.211h.058c0-.864.027-1.728-.008-2.59-.035-.882-.065-1.774-.213-2.64zM62.714 25.576c-1.088-.686-2.198-.411-3.151.772-1.392 1.729-3.192 2.351-5.336 1.87-2.628-.589-4.367-3.344-3.816-5.969.587-2.794 3.155-4.599 5.855-4.14 1.36.231 2.426.91 3.295 1.968.893 1.085 2.014 1.246 3.069.49 1.196-.857 1.329-2.184.342-3.439-2.48-3.158-6.806-4.42-10.622-3.102-3.905 1.348-6.543 5.044-6.596 9.173.08.641.115 1.291.247 1.921.914 4.357 4.38 7.473 8.831 7.761 3.535.227 6.405-1.188 8.515-4.06.847-1.15.551-2.498-.633-3.245zm51.712-10.796c-.812-.027-1.626-.004-2.499-.004-.013-.277-.027-.447-.027-.617-.003-1.619.016-3.238-.008-4.857-.018-1.322-.815-2.173-2.076-2.277-1.263-.106-2.164.613-2.391 1.93-.05.296-.051.602-.051.902-.003 6.281-.003 12.563-.001 18.845 0 .604-.018 1.209.005 1.812.047 1.204.619 2.034 1.551 2.287 1.66.453 2.96-.546 2.966-2.318.013-3.454.004-6.907.004-10.361v-.799h1.368c.45 0 .903.013 1.354-.004 1.29-.048 2.146-.854 2.206-2.064.074-1.518-.788-2.421-2.401-2.475zm16.773-.776c-5.267-2.212-11.625 1.313-12.472 7.004-.262 1.76-.17 3.572-.24 5.36l.072.003c0 1.469-.025 2.937.006 4.405.027 1.248.865 2.1 2.042 2.158 1.33.066 2.21-.631 2.392-1.915a7.58 7.58 0 0 0 .063-1.033c.005-2.397-.009-4.793.007-7.19.014-2.293 1.282-4.052 3.357-4.686a4.694 4.694 0 0 1 3.153.116c1.317.506 2.362.157 2.934-.928.714-1.356.192-2.662-1.314-3.294zM212.935 0c-3.323.005-6.07 2.761-6.086 6.107-.016 3.392 2.712 6.106 6.13 6.099 3.375-.007 6.034-2.704 6.023-6.111-.01-3.389-2.709-6.1-6.067-6.095zm.024 11.128a5.003 5.003 0 0 1-5.025-4.994c-.024-2.734 2.246-5.029 4.992-5.05 2.752-.021 4.994 2.23 5.001 5.018.005 2.803-2.189 5.024-4.968 5.026zM17.969 9.911c-.54.048-1.118.08-1.693.156-7.519.973-12.714 8.455-10.883 15.835 1.362 5.49 4.909 8.935 10.444 9.912 5.349.944 9.688-1.098 12.954-5.413 1.128-1.49.641-2.962-1.107-3.642-1.701-.66-2.703-2.083-2.681-3.805.021-1.762 1.068-3.168 2.809-3.773 1.427-.495 1.968-2.042 1.116-3.298-2.618-3.866-6.279-5.816-10.959-5.972zm-5.956 19.624c-3.766-3.497-3.791-9.505-.054-13.044 3.804-3.602 9.468-2.783 12.062.008-4.25 3.463-4.158 9.631.018 12.984-2.651 2.745-8.189 3.617-12.026.052zM214.382 6.322c.637-.386 1.015-.953.953-1.711-.059-.72-.423-1.383-1.141-1.487-1.276-.185-2.579-.192-3.925-.276v6.598h1.126V6.785c1.164-.095 1.411.019 2 .918.224.342.428.699.631 1.054.483.848.592.894 1.752.622l-1.925-2.821c.144-.064.35-.129.529-.236zm-2.988-.509V3.956c.71 0 1.417-.079 2.09.039.263.046.581.505.642.823.088.442-.248.786-.703.845-.65.086-1.309.101-2.029.15z"/></svg>