<svg xmlns="http://www.w3.org/2000/svg" width="134.001" height="50.001"><path fill="#0094A1" d="M53.637 32.408c-1.95 0-3.935-.043-4.025-2.664H42.18c.056 5.164 2.514 6.854 7.055 7.214 1.375.107 2.868.097 4.402.097 6.262 0 11.459-1.04 11.459-7.806 0-6.444-3.376-6.904-11.462-7.086-4.015-.089-4.251-.927-4.251-2.251 0-1.572.174-2.076 4.253-2.076 1.495 0 2.986.133 3.325 1.986h7v-.951c0-5.608-5.897-5.684-10.325-5.684-6.644 0-11.456.148-11.456 7.581 0 4.673 1.619 6.859 11.456 6.859.89 0 2.301-.049 3.13.309.769.335 1.126 1.005 1.126 2.219.001 2.033-.748 2.253-4.255 2.253zm33.395-14.409c-3.273 0-3.884 1.056-3.976 4.251h8.168v-.253c-.001-3.719-1.499-3.998-4.192-3.998zm43.778-9.731C127.85 3.42 122.176 0 115.519 0H18.483C11.826 0 6.152 3.42 3.191 8.268.577 12.78 0 20.131 0 25c0 4.873.577 12.221 3.191 16.733 2.96 4.846 8.635 8.269 15.292 8.269h97.036c6.657 0 12.331-3.422 15.292-8.269 2.611-4.511 3.191-11.863 3.191-16.735-.001-4.867-.58-12.218-3.192-16.73zM69.757 45.605h-50.04c-3.879-.007-8.409-1.896-10.766-4.419C5.226 37.201 4.412 30.949 4.412 25c0-5.947.813-12.202 4.538-16.187 2.357-2.523 6.888-4.413 10.766-4.42h50.04v41.212zm28.746-19.577h-15.44v.255c0 4.192.664 5.623 4.102 5.623 2.314 0 4.079-.255 4.189-2.753h7.147c-.056 3.336-1.193 5.202-3.084 6.293-1.972 1.092-4.81 1.365-8.252 1.365-9.209 0-11.382-3.108-11.382-11.837 0-9 1.993-11.884 11.382-11.884 8.773 0 11.338 2.362 11.338 11.884v1.054zm22.929-7.515h-5.426v18.281h-7.429V18.513h-5.431v-5.327h18.285v5.327zm-107.041 6.63c0 8.763 2.201 11.911 11.459 11.911 3.443 0 6.295-.271 8.288-1.372 1.934-1.117 3.083-3.027 3.122-6.437h-7.295c-.077 2.498-1.778 2.753-4.115 2.753-3.373 0-4.03-1.367-4.03-5.547v-.179h15.44v-1.13c0-9.562-2.596-11.957-11.41-11.957-9.437.002-11.459 2.925-11.459 11.958zm11.323-6.901c2.676 0 4.117.263 4.117 3.924v.177h-8.014c.09-3.129.729-4.101 3.897-4.101z"/></svg>