<svg xmlns="http://www.w3.org/2000/svg" width="201.001" height="38"><path d="M93.392 23.043L86.413 38h3.658l1.221-2.707h8.657L101.183 38h3.524l-6.844-14.957h-4.471zm-.678 9.137l2.913-6.363 2.846 6.363h-5.759zM91.087 2.465v10.742c0 .878.811 1.959 2.165 1.959h11.704v-3.107H94.537V9.222h8.661V6.115h-8.661V3.346h10.419V.235H93.455c-1.556 0-2.368.878-2.368 2.23zm-8.543 20.601H71.663v14.911h3.447v-4.184h7.434c2.027 0 4.325-1.146 4.325-5.33 0-4.25-2.501-5.397-4.325-5.397zm-.811 7.624H75.11v-4.52h6.42c1.69 0 1.69 1.62 1.69 2.294 0 .675 0 2.226-1.487 2.226zM75.109 9.218h8.988v5.938h3.447V.245h-3.447v5.87h-8.988V.245h-3.447v14.911h3.447V9.218zm74.215 5.942h11.697v-3.105h-10.412V9.219h8.654V6.114h-8.654V3.346h10.412V.241h-11.494c-1.557 0-2.367.877-2.367 2.228v10.732c0 .879.81 1.959 2.164 1.959zm-14.165-.009h10.133v-3.102h-9.119V.25h-3.447v12.676c.001 1.146.88 2.225 2.433 2.225zm49.318.025h3.454V3.336h5.046V.223h-13.48v3.112h4.98v11.841zm4.397 7.893h-11.078v14.904h11.01c3.987 0 4.256-3.844 4.256-5.935v-4.383c0-2.63-1.352-4.586-4.188-4.586zm.742 9.375c0 1.28-.676 2.427-1.891 2.427h-6.486v-8.699h6.757c1.014 0 1.69 1.079 1.62 2.022v4.25zm-73.007 2.42h-5.869c-.405 0-1.079-.269-1.079-1.346v-5.925s-.203-1.347 1.145-1.347h5.938c.539 0 1.145 1.009 1.215 1.682h3.439V26.65c0-1.279-1.28-3.503-3.439-3.57h-8.3c-1.619 0-3.44 1.819-3.44 3.501v7.879c0 1.548.944 3.502 3.509 3.502h8.232c1.889 0 3.439-1.279 3.439-3.502v-1.347h-3.372c0 .674-.136 1.751-1.418 1.751zm46.94-31.522h4.974v11.825h3.45V3.342h5.043V.233h-13.467v3.109zm36.471-2.235a3.249 3.249 0 0 0-2.373-.974c-.923 0-1.708.326-2.36.974a3.222 3.222 0 0 0-.98 2.36c0 .93.323 1.72.971 2.373.65.656 1.44.983 2.369.983.927 0 1.719-.328 2.373-.983a3.249 3.249 0 0 0 .98-2.373 3.21 3.21 0 0 0-.98-2.36zm-.334 4.409a2.765 2.765 0 0 1-2.039.847 2.765 2.765 0 0 1-2.039-.847 2.807 2.807 0 0 1-.835-2.05c0-.796.279-1.475.839-2.036a2.769 2.769 0 0 1 2.036-.847c.796 0 1.477.283 2.039.847.56.561.839 1.24.839 2.036 0 .802-.279 1.484-.84 2.05zm-25.291 22.265c0-3.045-2.1-4.737-4.539-4.737h-9.961V38h3.389v-4.4h5.825c1.356 0 2.034 1.083 2.034 1.692v2.706h3.252v-3.113c0-.879-.272-2.164-1.356-2.705.815-.678 1.356-1.692 1.356-4.399zm-4.879 2.707h-6.232v-4.33h5.825c1.695 0 2.034 1.284 2.034 2.03-.001.743-.339 2.3-1.627 2.3zm-23.491-7.416l-6.01 12.808v2.09h2.701l1.215-2.697h8.63l1.23 2.697h3.513l-6.823-14.898h-4.456zm-.676 9.101l2.904-6.337 2.891 6.337h-5.795zm-20.005-16.99L130.225.22h-3.458l-3.185 10.224L120.193.288h-3.252l-3.388 10.156L110.364.22h-3.456l4.134 12.662c.203.744 1.085 2.301 2.102 2.301h2.101l3.322-10.089 2.541 7.82c.204.745 1.186 2.268 2.203 2.268v.001h2.033zm9.829 7.874l-5.885 5.607H127.8v-5.607h-3.452v14.929h3.452V31.77h1.759l6.425 6.216h2.571v-1.959l-6.021-5.945 7.24-7.025h-4.601zm63.965-17.811a.594.594 0 0 1-.031-.192 4.15 4.15 0 0 1-.011-.272v-.268a1.001 1.001 0 0 0-.2-.569c-.134-.194-.346-.314-.636-.36.189-.022.371-.083.535-.178.24-.155.361-.396.361-.725 0-.461-.191-.771-.57-.929-.214-.088-.548-.132-1.006-.132h-1.285v3.67h.649V3.844h.51c.344 0 .586.04.722.118.231.137.346.418.346.843v.292l.015.119.009.041a.237.237 0 0 1 .009.036h.608l-.025-.047zm-.994-1.935c-.136.055-.342.082-.617.082h-.583v-1.33h.552c.359 0 .619.045.783.136.161.091.244.271.244.538-.001.282-.127.474-.379.574z"/><path fill="#008AC8" d="M17.546 26.185L26.661 0h3.916l-4.051 11.561h2.296c2.364 0 3.579 1.01 2.972 3.033-.608 2.022-4.051 11.592-4.051 11.592h-3.984l3.984-11.323c.134-.674.134-1.281-.675-1.281h-1.215l-4.456 12.603h-3.851zm24.253-14.69h-6.301l-9.079 26.326h3.862l4.026-11.639h3.563c2.846 0 3.321-1.083 3.862-2.64l2.914-8.257c1.015-2.775-.951-3.79-2.847-3.79zm-1.085 3.045S37.868 22.594 37.8 23c-.068.406-.407 1.151-1.084 1.151h-1.709l3.674-10.626h1.694c.61 0 .543.474.339 1.015z"/><path fill="#008AC8" d="M25.073 34.398c-7.024-2.256-12.074-8.463-12.074-15.496 0-6.183 4.386-12.422 10.24-15.524L24.455 0H5.061A5.065 5.065 0 0 0 0 5.063v27.679c0 2.792 2.266 5.079 5.061 5.079h18.785l1.227-3.423zM61.723 32.779a5.048 5.048 0 0 1-5.056 5.041H32.673l1.021-3.053c8.507-1.251 14.999-7.878 14.999-15.867 0-8.594-7.514-15.614-16.968-16.056L32.808 0H56.65c2.801 0 5.073 2.225 5.073 5.024"/></svg>