<svg xmlns="http://www.w3.org/2000/svg" width="155" height="72.685" viewBox="110.295 686.982 155 72.685"><path fill="#295BA7" d="M110.295 740.59h6v6.597h10.718v-6.597h5.925v18.515h-5.925v-7.795h-10.795v7.721h-5.923V740.59zm23.317 0h5.846l6.148 7.122 6.073-7.122h5.772l-8.922 11.319v7.196h-5.922v-7.721l-8.995-10.794zm24.589 0h5.923v14.318h9.521c1.499 0 2.474-1.497 2.474-3.073V740.59h5.921v14.768c0 2.323-2.623 3.672-4.123 3.672h-19.716v-18.44zm25.114 0h19.719c2.324 0 4.198 1.423 4.198 4.312v14.166l-5.922.037V747.86c0-1.572-.526-2.509-2.55-2.509h-8.921v13.794h-6.524V740.59zm25.716 0h17.241c3.45 0 6.112 2.773 6.112 4.909v8.509c-.038 1.498-2.138 5.096-4.761 5.096h-18.591l-.001-18.514zm6.035 14.393h9.1c1.311 0 2.324-.975 2.324-2.176v-5.397c0-1.312-1.079-2.096-2.463-2.096h-8.961v9.669zm24.629-14.472h18.479v18.593h-6.599v-4.795h-11.359v4.795h-6.671v-12.07c-.15-4.046 3.45-6.523 6.15-6.523zm.447 6.602v2.995h11.396v-4.725h-9.598c-1.123.002-1.798.678-1.798 1.73zm19.231-6.56h5.922v19.114h-5.922v-19.114zm-71.217-53.571c-24.576 0-44.5 9.837-44.5 21.968 0 12.132 19.924 21.97 44.5 21.97 24.575 0 44.499-9.837 44.499-21.97-.001-12.129-19.926-21.968-44.499-21.968zm-4.222 4.89c5.079-1.796 20.169 0 26.031 2.815 1.876 1.799-8.364 7.579-20.557 10.085-17.433 3.516-9.148-9.93-5.474-12.9zm-29.938 26.031c-3.832-2.732-11.336-10.552 1.094-18.68 6.566-3.829 10.239-4.692 14.773-5.629 2.19-.471 3.753.078 1.798 1.72-4.142 4.299-12.741 18.523-13.522 21.653-.627 2.111-1.876 2.655-4.143.936zm35.799 9.069c-7.347.78-23.683-1.642-23.997-3.75.314-5.084 25.952-13.526 30.563-8.836 1.956 3.674-1.795 12.351-6.566 12.586zm37.366-14.777c-1.878 4.3-8.208 9.149-21.496 12.433-2.035.466-2.738-.783-1.409-1.956 2.191-1.328 12.743-18.994 14.071-22.513.782-1.799 2.267-1.093 3.206-.391 4.223 2.734 7.427 7.191 5.628 12.427z"/></svg>