<svg xmlns="http://www.w3.org/2000/svg" width="145" height="58.889" viewBox="81.077 117.961 145 58.889"><path fill="#0058A3" d="M226.056 176.85H81.077v-58.889h145v58.889h-.021z"/><path fill="#FFDB00" d="M83.903 147.405c0 14.234 29.195 26.058 69.674 26.058s69.653-11.824 69.653-26.058-29.195-26.058-69.653-26.058-69.674 11.824-69.674 26.058z"/><path fill="#0058A3" d="M130.096 136.08c-.312.623-.312 1.226-.312 1.849v7.792s4.177-5.423 5.133-6.712c.727-.956 1.621-2.307 1.621-2.93h13.631c-.935.623-1.974 1.745-2.826 2.784l-4.987 6.088s6.296 9.579 7.107 10.805c.457.665.956 1.288 1.538 1.849h-15.689c0-.623-.603-1.891-1.268-2.888-.665-.997-4.26-6.462-4.26-6.462v7.501c0 .623 0 1.226.312 1.849h-13.07c.312-.623.312-1.226.312-1.849V137.93c0-.623 0-1.226-.312-1.849h13.07zm48.396 0h-25.226c.312.623.312 1.226.312 1.849v17.829c0 .623 0 1.226-.312 1.849h25.226v-5.964c-.623.312-1.226.312-1.849.312h-10.618v-2.826h10.203v-4.551h-10.203v-2.847h10.618c.623 0 1.226 0 1.849.291v-5.942zm34.951 19.679a5.2 5.2 0 0 0 1.018 1.849h-13.673c.062-.623-.166-1.226-.416-1.849 0 0-.208-.499-.499-1.226l-.125-.312h-7.875l-.125.332s-.229.603-.436 1.226c-.208.623-.436 1.226-.353 1.849h-10.785c.436-.54.769-1.164.977-1.849l6.462-17.829c.229-.623.457-1.226.374-1.849h18.224c-.166.623.166 1.226.395 1.849.541 1.351 6.38 16.604 6.837 17.809m-15.419-6.089l-1.912-4.987a11.07 11.07 0 0 1-.416-1.413 8.335 8.335 0 0 1-.374 1.413c-.062.208-.873 2.39-1.808 4.987h4.51zm-87.503-11.74c0-.623 0-1.226.312-1.849H96.62c.312.623.312 1.226.312 1.849v17.829c0 .623 0 1.226-.312 1.849h14.213c-.312-.623-.312-1.226-.312-1.849V137.93z"/></svg>