<svg image-rendering="optimizeQuality" shape-rendering="geometricPrecision" text-rendering="geometricPrecision" xmlns="http://www.w3.org/2000/svg" width="185" height="34.954" viewBox="41.148 9.345 185 34.954"><path fill="#FFF" d="M203.524 38.141c.385.018.617.357.617.696 0 .381-.347.622-.531.683l.484 1.04h-.427l-.508-1.062h-.576v1.062h-.446v-2.42h1.387zm-.942 1.023h.864c.237-.066.258-.191.266-.351.006-.156-.144-.333-.296-.333h-.834v.684z"/><path fill="#FFF" d="M203.055 41.479a2.12 2.12 0 1 0-.002-4.242 2.12 2.12 0 0 0 .002 4.242zm-1.775-2.137a1.775 1.775 0 1 1 3.55 0 1.775 1.775 0 1 1-3.55 0z"/><path fill="#F6D900" d="M41.148 41.916l92.499 2.382 92.501-2.382v-1.089l-92.501-2.386-92.499 2.386z"/><g fill="#343E8B"><path d="M73.164 10.156h8.833v16.422h11.105v4.772H73.164zM185.096 32.201c-6.882 0-12.672-2.048-12.672-7.69V10.156h8.548v13.7c0 2.651 1.959 3.863 4.124 3.863 2.167 0 4.124-1.211 4.124-3.863v-13.7h8.547v14.355c0 5.641-5.786 7.69-12.671 7.69zM215.677 15.791h9.034c-.473-4.868-7.326-6.321-12.636-6.321-5.307 0-12.221 1.736-12.221 7.046 0 3.88 3.795 5.121 6.459 5.66 1.89.381 5.04.918 6.616 1.265 2.192.48 3.327.925 3.327 2.218 0 1.382-1.275 2.088-3.891 2.088-2.481 0-3.963-.771-4.375-2.521l-9.206.001c.541 5.774 7.938 7.036 13.777 7.036 5.875 0 12.895-1.398 12.895-7.12 0-3.107-2.001-5.174-6.927-6.159a381.91 381.91 0 0 0-7.526-1.423c-1.82-.317-2.47-.973-2.47-1.868 0-.923.884-1.891 3.437-1.891 2.156 0 3.322.63 3.707 1.989zM162.835 23.547c6.36 0 7.978-4.045 7.978-6.629 0-2.379-1.368-6.762-7.97-6.762h-17.098l.001 21.194h8.393v-7.803h8.696zm-8.697-4.627v-4.134h5.603c1.396 0 2.59.652 2.59 1.999 0 1.187-.686 2.135-2.601 2.135h-5.592zM103.727 10.672l.241-.516h8.861l-9.221 14.058v7.136h-8.383v-7.136l-9.19-14.058h8.83l.246.516 3.996 7.017c.263.451.343.451.633 0l3.987-7.017zM130.527 31.35l.156-.422 4.503-10.471c.116-.275.388-.202.392.04V31.35h7.23V10.156h-8.738l-.161.456-5.386 12.158c-.199.461-.383.459-.582 0l-5.383-12.158-.161-.456h-8.739V31.35h7.234V20.497c.001-.242.273-.315.391-.04l4.498 10.471.16.422h4.586zM71.169 20.754c0 7.12-6.175 11.408-14.789 11.408s-14.789-4.287-14.789-11.408c0-7.124 6.175-11.41 14.789-11.41s14.789 4.286 14.789 11.41zm-8.892 0c0-4.288-2.219-6.935-5.897-6.935-3.68 0-5.896 2.647-5.896 6.935 0 4.286 2.216 6.932 5.896 6.932 3.678 0 5.897-2.645 5.897-6.932z"/></g></svg>