<svg xmlns="http://www.w3.org/2000/svg" width="180" height="59.765" viewBox="0.002 120.635 180 59.765"><path fill="#034EA2" d="M179.891 134.865c2.452 14.053-35.803 32.454-85.454 41.101-49.643 8.647-91.875 4.26-94.324-9.8-2.448-14.053 35.818-32.451 85.461-41.094 49.648-8.653 91.872-4.263 94.317 9.793z"/><g fill="#FFF"><path d="M133.164 155.723l-.253-14.611h4.606v18.417h-6.622l-4.599-15.113h-.1l.256 15.113h-4.58v-18.417h6.913l4.279 14.611zM49.414 142.838l-2.548 16.884h-5.027l3.449-18.61h8.279l3.437 18.61h-5.008l-2.477-16.884zM71.116 155.34l2.3-14.228h7.59l.401 18.61h-4.65l-.123-16.731h-.097l-3.11 16.731h-4.721l-3.115-16.731h-.1l-.115 16.731h-4.662l.413-18.61h7.593l2.296 14.228zM34.004 154.473c.182.45.126 1.031.041 1.38-.156.618-.577 1.25-1.812 1.25-1.168 0-1.875-.67-1.875-1.689v-1.801h-4.993l-.004 1.44c0 4.148 3.267 5.402 6.768 5.402 3.367 0 6.139-1.15 6.578-4.253.227-1.607.056-2.66-.019-3.058-.785-3.895-7.85-5.06-8.375-7.236a2.463 2.463 0 0 1-.019-.982c.13-.592.536-1.246 1.7-1.246 1.086 0 1.73.673 1.73 1.689v1.15h4.64v-1.306c0-4.055-3.639-4.688-6.273-4.688-3.311 0-6.016 1.094-6.511 4.122-.134.837-.153 1.581.041 2.515.815 3.798 7.423 4.9 8.383 7.311zM94.519 154.439c.182.446.123 1.012.041 1.362-.153.618-.569 1.239-1.797 1.239-1.15 0-1.853-.67-1.853-1.667l-.004-1.786h-4.941l-.007 1.421c0 4.107 3.237 5.346 6.701 5.346 3.33 0 6.076-1.135 6.511-4.208.227-1.596.067-2.634-.015-3.025-.781-3.858-7.772-5.012-8.293-7.17a2.373 2.373 0 0 1-.019-.964c.134-.599.532-1.235 1.685-1.235 1.079 0 1.708.655 1.708 1.667v1.138h4.606v-1.295c0-4.011-3.609-4.64-6.221-4.64-3.274 0-5.957 1.079-6.44 4.089-.134.826-.149 1.555.045 2.485.8 3.764 7.344 4.858 8.293 7.243zM110.149 156.939c1.291 0 1.693-.893 1.782-1.351.037-.201.048-.469.045-.711v-13.773h4.707v13.349c.011.342-.022 1.045-.041 1.22-.331 3.475-3.077 4.602-6.496 4.602-3.423 0-6.172-1.127-6.5-4.602a17.912 17.912 0 0 1-.041-1.22v-13.349h4.703v13.77c0 .242.007.513.045.711.103.458.494 1.354 1.796 1.354zM148.973 156.742c1.347 0 1.819-.852 1.905-1.347a4.38 4.38 0 0 0 .041-.707v-2.701h-1.909v-2.716h6.6v4.997c-.004.35-.011.606-.067 1.228-.309 3.386-3.248 4.595-6.544 4.595-3.304 0-6.236-1.209-6.552-4.595-.052-.621-.06-.878-.067-1.228l.004-7.835c0-.331.041-.915.078-1.228.413-3.479 3.233-4.599 6.537-4.599 3.3 0 6.191 1.112 6.533 4.599.06.592.041 1.228.041 1.228v.621h-4.692v-1.042a4.518 4.518 0 0 0-.06-.707c-.078-.413-.435-1.358-1.857-1.358-1.358 0-1.752.893-1.853 1.358a4.274 4.274 0 0 0-.078.878v8.513c-.004.234.011.495.048.707.076.487.545 1.339 1.892 1.339z"/></g></svg>