<svg xmlns="http://www.w3.org/2000/svg" width="145" height="30.229"><path fill="#010101" d="M90.961 22.989c-1.415.004-2.831-.004-4.244-.093a15.138 15.138 0 0 1-2.451-.341c-1.703-.391-2.672-1.458-3.003-3.154-.293-1.5-.297-3.017-.296-4.534.001-1.262.026-2.524.246-3.772.055-.311.133-.615.225-.917.454-1.486 1.543-2.219 2.991-2.537 1.222-.269 2.464-.328 3.708-.363a97.693 97.693 0 0 1 6.266.019c1.089.039 2.174.131 3.243.378 1.713.396 2.688 1.462 3.019 3.169.196 1.009.26 2.028.279 3.051.03 1.646.045 3.291-.182 4.928-.057.414-.15.82-.273 1.22-.398 1.292-1.28 2.073-2.562 2.438-.89.253-1.803.358-2.722.415-1.414.089-2.829.097-4.244.093zm.018-12.277c-.895.002-1.791-.012-2.685.055-.153.011-.305.032-.458.048-1.208.134-1.74.566-1.878 1.741a21.727 21.727 0 0 0 .002 5.129c.139 1.158.661 1.583 1.832 1.73.832.104 1.667.109 2.502.105 1.278-.006 2.558.047 3.833-.105 1.189-.143 1.726-.589 1.848-1.772.18-1.74.187-3.49-.025-5.231-.102-.837-.584-1.358-1.426-1.52a6.906 6.906 0 0 0-.453-.077c-1.028-.128-2.061-.096-3.092-.103zM47.408 22.899a230.429 230.429 0 0 1-6.714-.203c-.286-.014-.375-.104-.376-.396a427.74 427.74 0 0 1 0-2.533c.001-.343.062-.404.405-.391 2.377.088 4.755.176 7.134.185 1.552.006 3.104.027 4.655-.053.4-.021.8-.051 1.189-.155.467-.125.635-.338.65-.818a8.235 8.235 0 0 0-.002-.588c-.016-.404-.167-.604-.552-.735-.408-.139-.835-.176-1.259-.192-2.113-.08-4.227-.139-6.34-.222-1.26-.05-2.523-.096-3.756-.403a5.84 5.84 0 0 1-.44-.133c-.96-.319-1.542-.983-1.721-1.972a11.831 11.831 0 0 1-.005-4.196c.198-1.116.858-1.843 1.935-2.196.865-.283 1.76-.402 2.663-.451 3.563-.194 7.126-.133 10.689-.011.758.026 1.516.065 2.274.099.351.016.435.101.435.45.002.767.001 1.535 0 2.302 0 .407-.071.475-.478.466-3.453-.08-6.906-.128-10.36-.085-.673.008-1.347.024-2.013.146-.675.124-.854.335-.856 1.01a7.53 7.53 0 0 0 .014.562c.026.371.219.616.573.734.409.136.833.184 1.258.199 1.755.062 3.511.109 5.267.172 1.396.05 2.797.045 4.185.24.321.045.636.115.948.202 1.01.28 1.635.935 1.823 1.959a12.148 12.148 0 0 1-.027 4.498c-.205 1.078-.878 1.736-1.917 2.042-1.04.306-2.111.372-3.185.417-2.044.083-4.091.039-6.096.05zM103.82 15.114V7.976c0-.342.076-.423.42-.421 3.863.015 7.727-.049 11.589.053 1.176.031 2.346.123 3.502.377 1.814.398 2.794 1.534 3.083 3.335.257 1.599.254 3.209.224 4.821-.019 1.023-.064 2.045-.282 3.05-.076.35-.182.691-.323 1.02-.499 1.166-1.462 1.727-2.631 2.018-1.191.296-2.409.371-3.628.4-3.846.089-7.692.03-11.538.044-.351.001-.417-.069-.417-.419l.001-7.14zm4.556.001c0 1.288.004 2.575-.005 3.863-.001.195.041.255.247.254 1.501-.01 3.002-.002 4.503-.007.92-.003 1.841.003 2.757-.12 1.2-.162 1.744-.619 1.894-1.78.189-1.466.186-2.947.001-4.414-.135-1.069-.583-1.511-1.567-1.721a8.72 8.72 0 0 0-1.78-.166c-1.944-.011-3.888-.01-5.833-.023-.183-.001-.223.049-.222.226.008 1.295.005 2.591.005 3.888zM134.161 7.554c1.015 0 2.03.005 3.045-.003.269-.002.434.089.559.341 2.359 4.737 4.726 9.47 7.091 14.204.25.5.202.576-.369.576-1.271 0-2.541-.004-3.812.003-.26.002-.424-.08-.541-.326-.301-.629-.632-1.244-.94-1.869-.071-.144-.155-.188-.313-.188-3.155.005-6.311.005-9.466-.001-.169 0-.255.049-.33.202-.315.641-.651 1.272-.967 1.913-.092.187-.221.267-.421.266-1.365-.001-2.729.002-4.094-.002-.341-.001-.397-.138-.217-.497l4.372-8.743c.913-1.827 1.831-3.65 2.728-5.485.149-.305.34-.399.657-.395 1.005.012 2.012.004 3.018.004zm-3.344 9.562c.027.005.052.014.076.014 2.132.001 4.264-.002 6.396.005.261.001.15-.119.096-.226-.958-1.899-1.92-3.794-2.869-5.697-.095-.191-.222-.187-.385-.192-.163-.005-.275.014-.362.19-.947 1.894-1.907 3.783-2.861 5.673-.036.072-.096.139-.091.233zM65.908 14.107l3.438-2.743c1.512-1.207 3.025-2.413 4.536-3.623a.819.819 0 0 1 .54-.189c1.629.003 3.258.001 4.887.002.068 0 .136.006.203.018.086.016.17.046.189.146.017.084-.034.146-.094.198-.045.039-.093.075-.14.112-2.517 1.984-5.033 3.97-7.554 5.948-.162.127-.165.186-.017.329 2.695 2.623 5.385 5.251 8.074 7.88.103.101.287.189.204.371-.072.156-.251.115-.392.115-1.74.002-3.479-.001-5.219.004a.809.809 0 0 1-.615-.248c-1.836-1.818-3.68-3.628-5.517-5.445-.107-.105-.17-.139-.307-.029a101.86 101.86 0 0 1-2.009 1.582c-.149.115-.213.228-.211.421.011 1.091.006 2.183.005 3.275 0 .366-.07.44-.427.44-1.228.001-2.456.002-3.684 0-.36 0-.427-.072-.427-.439V8.007c0-.374.076-.453.445-.454 1.219-.001 2.439-.002 3.658 0 .355 0 .435.084.435.438v5.782l-.001.334zM49.863 6.411c-.631 0-1.262-.007-1.893.004a.66.66 0 0 1-.552-.254c-.583-.679-1.177-1.348-1.767-2.022-.083-.095-.201-.19-.145-.331.064-.16.225-.127.357-.127.827-.002 1.654.004 2.481-.004.256-.003.436.085.576.301.203.315.423.619.639.925.144.204.495.204.64-.001.226-.32.451-.641.669-.966a.546.546 0 0 1 .494-.257c.861.005 1.722.001 2.583.003.109 0 .236-.012.294.108.062.13-.025.226-.105.317-.618.705-1.238 1.409-1.853 2.117a.548.548 0 0 1-.451.191c-.654-.007-1.311-.004-1.967-.004z"/><path fill="#202020" d="M30.242 15.115c-.035 8.232-6.562 15.124-15.158 15.113C6.834 30.218-.009 23.718 0 15.099.008 6.506 6.829-.005 15.112 0c8.629.005 15.098 6.931 15.13 15.115zm-.467 2.965c.085-.08.043-.19.07-.283.187-.66.229-1.337.246-2.018.092-1.285-.039-2.552-.301-3.809C28.2 4.361 20.848-.832 13.146.242 8.869.839 5.453 2.912 2.907 6.397a14.275 14.275 0 0 0-2.383 5.236 11.155 11.155 0 0 0-.295 1.651c-.075.446-.091.897-.109 1.346-.026.66.002 1.32.072 1.978.034.451.102.898.19 1.341 1.35 6.762 6.88 11.667 13.751 12.12 4.29.282 8.042-1.076 11.211-3.986a14.392 14.392 0 0 0 3.924-6.005c.227-.575.376-1.172.514-1.772a.404.404 0 0 0-.007-.226z"/><path fill="#EEE" d="M.524 11.634a14.284 14.284 0 0 1 2.383-5.236C5.453 2.913 8.869.84 13.146.243 20.848-.832 28.2 4.361 29.789 11.97c.262 1.257.393 2.524.301 3.809-.342-.043-.686-.077-1.026-.133-.284-.047-.344-.006-.354.29-.005.16-.014.32-.026.48-.034.472-.138.934-.182 1.404l-.566 1.999c-.016.029-.035.057-.047.088a13.51 13.51 0 0 1-1.492 2.863c-.051.075-.074.209-.22.159.032-.05.063-.101.096-.15 2.115-3.145 2.823-6.591 2.114-10.304C26.973 5.056 19.552.19 12.165 1.929c-5.278 1.242-8.637 4.606-10.16 9.806-.022.078-.005.176-.105.217-.034-.157-.171-.143-.281-.16-.364-.058-.73-.106-1.095-.158z"/><path fill="#A6AEB4" d="M26.179 22.929c.147.05.17-.084.221-.159a13.557 13.557 0 0 0 1.492-2.863c.012-.031.031-.059.047-.088.434.131.901.098 1.329.258a14.367 14.367 0 0 1-3.924 6.005c-3.168 2.91-6.92 4.268-11.211 3.986-6.871-.452-12.401-5.357-13.751-12.12-.088-.443-.156-.89-.19-1.341.088-.092.181-.118.317-.095.34.059.683.142 1.03.034.019.16.033.321.058.48.259 1.634.749 3.189 1.553 4.643a13.738 13.738 0 0 0 3.189 3.886 13.432 13.432 0 0 0 4.983 2.664c.784.227 1.581.394 2.398.451 1.182.107 2.361.091 3.536-.095 2.301-.364 4.367-1.27 6.212-2.687.061-.047.161-.085.11-.199l.007.005c.185.012.292-.068.301-.26l.006.004c.24-.016.368-.154.415-.38.008-.042.034-.065.075-.073.244-.026.565-.347.591-.592.007-.042.031-.068.074-.075.239-.067.399-.208.43-.467l-.004-.006c.112.052.153-.048.201-.106.146-.175.288-.354.42-.54.054-.077.154-.146.102-.268l-.017-.002z"/><path fill="#D9DDDE" d="M13.719 28.672c-.817-.057-1.613-.225-2.398-.451a13.424 13.424 0 0 1-4.983-2.664 13.754 13.754 0 0 1-3.189-3.886c-.805-1.454-1.295-3.009-1.553-4.643-.025-.159-.039-.32-.058-.48-.017-.262-.044-.525-.049-.787-.012-.706-.019-1.412.044-2.117.012-.134-.012-.247-.169-.261-.379-.034-.751-.147-1.136-.097.054-.558.158-1.108.295-1.651.365.052.731.101 1.096.158.11.017.247.004.281.16.004.059.025.124.009.177-.142.456-.175.929-.23 1.4-.131 1.133-.142 2.266.03 3.391.711 4.653 3.174 8.073 7.322 10.276 1.468.78 3.055 1.19 4.7 1.388-.005.028-.008.058-.012.087z"/><path fill="#B6BEC2" d="M.228 13.285c.386-.049.758.064 1.136.097.156.014.18.127.169.261-.063.705-.056 1.411-.044 2.117.004.263.032.525.049.787-.347.107-.69.024-1.03-.034-.136-.023-.229.003-.317.095A13.762 13.762 0 0 1 .12 14.63c.018-.449.034-.9.108-1.345z"/><path fill="#D9DDDE" d="M28.503 17.82c.044-.47.148-.931.182-1.404.012-.16.021-.32.026-.48.01-.296.069-.337.354-.29.34.056.684.089 1.026.133-.017.68-.059 1.358-.246 2.018-.027.093.015.203-.07.283-.409-.162-.863-.097-1.272-.26z"/><path fill="#B6BEC2" d="M28.503 17.82c.408.163.863.098 1.271.26a.383.383 0 0 1 .006.225c-.138.601-.288 1.198-.514 1.772-.429-.16-.895-.127-1.329-.258l.566-1.999z"/><path fill="#030303" d="M13.73 28.584c-1.645-.198-3.232-.609-4.7-1.388-4.148-2.203-6.611-5.623-7.322-10.276-.172-1.125-.161-2.259-.03-3.391.055-.471.088-.943.23-1.4.016-.053-.005-.117-.009-.177.1-.041.083-.139.105-.217 1.523-5.2 4.882-8.564 10.16-9.806C19.551.19 26.972 5.056 28.388 12.474c.709 3.713 0 7.158-2.114 10.304-.033.049-.064.1-.096.15l.016.007-.723.913.004.006c-.168.133-.293.306-.43.467-.043.007-.067.033-.074.075l-.591.592c-.041.008-.067.031-.075.073-.145.119-.298.23-.415.379l-.005-.004a1.014 1.014 0 0 0-.301.26l-.007-.005c-.029.017-.06.032-.086.052-2.436 1.9-5.199 2.866-8.288 2.895-.491.006-.983.001-1.473-.054zm1.381-1.038c6.854.007 12.419-5.538 12.433-12.387.014-6.902-5.53-12.472-12.42-12.476C8.259 2.678 2.689 8.235 2.683 15.094a12.428 12.428 0 0 0 12.428 12.452z"/><path fill="#EEE" d="M13.73 28.584c.49.055.982.06 1.474.055 3.088-.03 5.851-.996 8.288-2.895.026-.02.057-.035.086-.052.05.114-.049.152-.11.199-1.845 1.417-3.911 2.323-6.212 2.687a14.237 14.237 0 0 1-3.536.095l.01-.089zM25.472 23.849l.723-.913c.052.121-.047.191-.102.268a8.393 8.393 0 0 1-.42.54c-.048.057-.089.157-.201.105zM24.381 24.988l.591-.592c-.025.245-.346.566-.591.592zM25.046 24.321c.137-.161.262-.333.43-.467-.031.26-.191.4-.43.467zM23.891 25.44c.117-.15.27-.26.415-.379-.048.226-.175.364-.415.379zM23.584 25.696c.079-.112.188-.188.301-.26-.009.192-.116.272-.301.26z"/><path fill="#090B09" d="M8.829 10.701c.393.161.784.328 1.18.48.199.076.406.128.624.062.18-.054.223-.108.055-.255A20.87 20.87 0 0 0 7.246 8.52a5.215 5.215 0 0 1-.434-.268c-.163-.116-.18-.263-.044-.413.81-.898 1.715-1.682 2.757-2.302.249-.148.462-.088.689.057a32.508 32.508 0 0 1 3.689 2.701c.327.279.667.535 1.125.546.041.001.083-.004.126-.006.015-.115-.064-.18-.111-.256-.805-1.284-1.842-2.362-2.973-3.358-.158-.139-.419-.247-.345-.517.068-.245.334-.233.532-.287a10.828 10.828 0 0 1 3.645-.37c.249.018.463.101.651.26 2.268 1.916 3.68 4.326 4.175 7.26.453 2.688.103 5.314-.639 7.907-.065.226-.169.448-.096.697.082.282.26.379.626.32.239-.039.256-.226.243-.41-.049-.693.2-.693.717-.579a6.45 6.45 0 0 1 2.946 1.505c.297.265.296.449-.009.714a6.532 6.532 0 0 1-3.257 1.545c-.273.046-.381-.041-.393-.315-.003-.068.001-.136-.001-.205-.01-.276-.081-.352-.352-.352-3.377-.001-6.754 0-10.131-.002a.772.772 0 0 0-.411.116c-.35.211-.702.418-1.054.626-.088.051-.172.115-.279.121-.528.029-1.057.022-1.585.004-.133-.004-.216-.095-.278-.201-.567-.982-1.22-1.908-1.871-2.835a1.055 1.055 0 0 1-.148-.294c-.07-.228.036-.413.266-.467.106-.025.219-.031.329-.031.947-.002 1.893.001 2.84-.003.175-.001.334.037.492.112.553.264 1.108.523 1.663.782.092.043.186.085.284.114.513.154.799-.106.712-.634-.473-2.848-2.217-4.543-4.889-5.397a15.818 15.818 0 0 0-1.883-.463c-.328-.062-.458-.237-.407-.558.194-1.221.561-2.384 1.163-3.467.191-.343.328-.393.713-.27l-.081.065c-.161-.023-.331-.078-.437.114-.552.89-.884 1.865-1.109 2.881a3.413 3.413 0 0 0-.017.099 2.41 2.41 0 0 0-.002.085c-.06.024-.045.083-.056.128-.104.444-.095.453.307.349-.014.196.146.182.261.207a15.16 15.16 0 0 1 2.182.621c1.33.503 2.507 1.229 3.389 2.37.765.988 1.174 2.128 1.336 3.353.114.855-.6 1.369-1.37 1.023.012-.057.006-.129.039-.167.154-.174.063-.25-.104-.32-.286-.12-.568-.25-.852-.376-.144-.071-.284-.148-.431-.211-.246-.105-.461-.287-.743-.306a.699.699 0 0 0-.374-.01 31.51 31.51 0 0 0-2.085 0c-.243-.038-.486-.013-.729-.004-.195.007-.206.103-.092.24.14.168.277.339.415.508-.035.126.047.21.108.3.474.698.953 1.392 1.383 2.119.057.096.12.193.25.192.674-.003 1.367.116 1.955-.371.161-.134.374-.204.552-.32.209-.136.43-.184.677-.184 3.385.004 6.77.003 10.155.003.077 0 .154-.005.23.004.24.031.433.2.436.428.003.231.091.245.283.196.698-.175 1.32-.5 1.889-.931.125-.095.284-.16.339-.329.204-.007.409-.008.612-.024.085-.006.206.054.248-.058.04-.106-.071-.161-.138-.222a6.192 6.192 0 0 0-2.496-1.387c-.269-.075-.536-.173-.824-.138-.109-.016-.143.078-.144.14-.004.329-.135.673.096.979-.202.265-.487.122-.736.151-.007-.088.021-.179-.09-.24-.392-.217-.477-.434-.373-.866.077-.32.21-.624.249-.953.176-.697.346-1.396.449-2.109.181-1.249.295-2.501.173-3.763-.027-.516-.064-1.031-.204-1.531-.063-.355-.107-.715-.234-1.056-.004-.025-.004-.051-.011-.075-.664-2.379-1.992-4.321-3.879-5.895a.913.913 0 0 0-.539-.202 10.612 10.612 0 0 0-2.895.193c-.355.071-.713.135-1.098.317l.627.09c-.05.15.068.215.154.29 2.025 1.753 3.476 3.885 4.259 6.457.138.453.082.516-.394.421-.024-.005-.046-.022-.069-.034-.02-.082-.031-.167-.06-.246-.298-.836-.698-1.627-1.078-2.427-.104-.22-.242-.311-.476-.267-.243.005-.423-.156-.634-.236l-.677-.543a4.209 4.209 0 0 0-.605-.492c-.187-.151-.371-.308-.563-.453-.739-.559-1.514-1.065-2.29-1.57-.21-.136-.394-.113-.592.007a9.958 9.958 0 0 0-1.714 1.307c-.18.126-.327.286-.473.448-.123.091-.214.211-.308.33a.292.292 0 0 0-.172.24l.523-.091c.03.067.093.097.152.13 2.235 1.226 4.099 2.887 5.69 4.867.091.113.276.227.177.384-.092.145-.296.148-.469.144-.057-.001-.113-.03-.169-.046-.015-.038-.022-.084-.047-.114-.319-.391-.621-.798-.967-1.165-.263-.28-.462-.627-.81-.824a.537.537 0 0 0-.279.11l-.358.006-.447-.129-1.092-.478.006-.017a3.49 3.49 0 0 1 .075-.062z"/><path fill="#202020" d="M5.958 9.712l.081-.065c.959.276 1.887.633 2.79 1.055l-.074.06c-.155.041-.241-.098-.36-.147a40.001 40.001 0 0 0-2.437-.903z"/><path fill="#4BA72E" d="M16.489 11.888c.023.012.044.029.068.034.476.095.532.031.394-.421-.783-2.573-2.234-4.704-4.259-6.457-.086-.075-.204-.14-.154-.29.867-.237 1.753-.322 2.648-.337.28-.005.513.089.722.269a13.112 13.112 0 0 1 2.462 2.819c.605.935 1.038 1.95 1.385 3.004l.215.868.248 1.537.024.459c.042.707.043 1.413.001 2.12-.058.97-.222 1.925-.382 2.881-.122.458-.231.919-.37 1.372-.217.71.298 1.204.871 1.1.25-.029.535.114.736-.151a.35.35 0 0 0 .139-.282c.002-.093.03-.164.128-.19a5.535 5.535 0 0 1 2.379 1.181c-.054.17-.214.234-.339.329a5.195 5.195 0 0 1-1.889.931c-.192.048-.28.035-.283-.196-.003-.228-.196-.397-.436-.428-.076-.01-.153-.004-.23-.004-3.385 0-6.77.001-10.155-.003-.247 0-.468.048-.677.184-.178.116-.39.186-.552.32-.588.487-1.281.368-1.955.371-.131.001-.193-.096-.25-.192-.43-.726-.909-1.421-1.383-2.119-.061-.09-.143-.174-.108-.3l.4-.021h2.199l.316.005.526.123c.489.224 1.002.379 1.514.537.771.347 1.484-.168 1.37-1.023-.163-1.225-.572-2.365-1.336-3.353-.882-1.141-2.059-1.867-3.389-2.37a15.16 15.16 0 0 0-2.182-.621c-.115-.024-.275-.01-.261-.205l.119-.711c.189-.648.411-1.284.708-1.892a.72.72 0 0 1 .228-.297c.339.006.638.161.95.262.822.267 1.603.636 2.402.961l1.133.549c.229.144.465.275.719.37.276.18.562.339.87.46l-.003-.003.102.05c.187.132.398.195.624.215.078.057.166.044.253.041.056.016.112.045.169.046.172.005.377.001.469-.144.099-.157-.086-.271-.177-.384-1.591-1.979-3.454-3.641-5.69-4.867-.06-.034-.123-.064-.153-.131l.019-.144a.432.432 0 0 0 .206-.199 2.05 2.05 0 0 0 .403-.375c.382-.336.795-.63 1.22-.91.189-.124.346-.122.538-.005a24.49 24.49 0 0 1 2.181 1.458c.303.231.603.465.905.697l.876.779.664.663 1.439 1.673c.174.211.4.327.671.357zm1.693 7.474a.289.289 0 0 0 .205-.216c.08-.098.169-.186.226-.303.391-.794.335-1.562-.206-2.252-.535-.682-1.268-.932-2.117-.742-1.46.327-2.109 2.194-1.148 3.267.054.08.084.178.182.222.222.269.513.424.846.51.653.207 1.253.091 1.81-.293l.202-.193z"/><path fill="#E6EAEB" d="M19.757 10.508c-.347-1.054-.78-2.069-1.385-3.004a13.112 13.112 0 0 0-2.462-2.819 1.036 1.036 0 0 0-.722-.269c-.896.015-1.781.1-2.648.337l-.627-.09c.385-.183.743-.247 1.098-.317.956-.191 1.92-.267 2.895-.193a.92.92 0 0 1 .539.202c1.886 1.575 3.215 3.516 3.879 5.895.007.024.007.05.011.075-.058.105-.161.084-.249.078a.45.45 0 0 0-.329.105zM12.839 8.415c-.302-.232-.602-.466-.905-.697-.696-.532-1.433-1.003-2.181-1.458-.192-.116-.35-.119-.538.005-.425.28-.838.573-1.22.91-.008-.124-.071-.196-.198-.207a9.835 9.835 0 0 1 1.718-1.307c.198-.12.383-.144.592-.007.776.505 1.551 1.011 2.29 1.57.192.145.375.302.563.453-.125.012-.184.061-.13.198.04.1.05.212.089.313.042.107.023.179-.08.227z"/><path fill="#A6AEB4" d="M19.863 18.373c.159-.956.323-1.911.382-2.881a17.85 17.85 0 0 0-.001-2.12l-.024-.459c.184-.031.369-.032.553-.001.122 1.263.008 2.515-.173 3.763-.103.713-.273 1.412-.449 2.109-.107-.129-.077-.354-.288-.411z"/><path fill="#E6EAEB" d="M9.051 11.692c-.799-.326-1.58-.694-2.402-.961-.312-.101-.611-.256-.95-.262-.12-.197-.057-.445-.178-.642.105-.192.275-.137.437-.114.821.277 1.635.573 2.437.903.119.049.205.188.36.147l-.006.017c.001.217.136.377.228.557.054.104.213.204.074.355z"/><path fill="#EEE" d="M23.746 21.403a5.524 5.524 0 0 0-2.379-1.181l-.218-.646c.288-.035.555.062.824.138.942.264 1.77.734 2.496 1.387.067.06.178.115.138.222-.042.112-.163.052-.248.058-.204.013-.408.015-.613.022z"/><path fill="#E6EAEB" d="M8.087 20.275H5.888c.002-.241.094-.482.005-.724a31.51 31.51 0 0 1 2.085 0c-.018.25.112.477.109.724z"/><path fill="#A6AEB4" d="M15.817 11.53l-1.439-1.673c.016-.304-.12-.577-.172-.867-.018-.099-.071-.196.035-.277.211.08.392.241.634.236.191.649.518 1.245.737 1.883.08.228.22.441.205.698z"/><path fill="#50575B" d="M15.817 11.53c.015-.257-.125-.47-.204-.699-.219-.638-.547-1.233-.737-1.883.234-.045.371.046.476.267.38.8.779 1.591 1.078 2.427.028.079.04.164.06.246a.978.978 0 0 1-.673-.358z"/><path fill="#D9DDDE" d="M5.521 9.826c.121.197.057.445.178.642a.723.723 0 0 0-.229.298 11.797 11.797 0 0 0-.708 1.892c-.121-.013-.227.08-.351.05.226-1.017.558-1.992 1.11-2.882z"/><path fill="#50575B" d="M19.863 18.373c.211.057.181.282.288.412-.039.329-.172.634-.249.953-.104.432-.018.649.373.866.111.062.083.152.09.24-.574.104-1.088-.39-.871-1.1.138-.451.247-.913.369-1.371z"/><path fill="#B6BEC2" d="M20.773 12.913a1.63 1.63 0 0 0-.553.001l-.248-1.537.597.005c.14.501.176 1.015.204 1.531z"/><path fill="#D9DDDE" d="M9.051 11.692c.139-.151-.02-.251-.074-.356-.092-.18-.227-.34-.228-.557l1.092.478c-.18.053-.073.149-.031.228.132.248.336.461.374.756l-1.133-.549z"/><path fill="#50575B" d="M12.495 13.331a1.25 1.25 0 0 1-.624-.215l-.102-.05.003.003c-.178-.404-.47-.734-.715-1.095-.136-.2-.33-.359-.412-.596a.537.537 0 0 1 .279-.11.112.112 0 0 0 .023.118c.272.325.553.644.815.978.249.32.547.601.733.967z"/><path fill="#A6AEB4" d="M10.646 11.379c.082.237.276.396.412.596.245.361.537.691.715 1.095a4.793 4.793 0 0 1-.87-.46c-.003-.182-.144-.298-.213-.448-.121-.266-.373-.464-.402-.777l.358-.006z"/><path fill="#202020" d="M10.443 20.941c-.512-.158-1.025-.313-1.514-.538.156-.189.388-.235.597-.326.284.126.566.256.852.376.166.07.257.146.104.32-.033.039-.027.112-.039.168z"/><path fill="#D9DDDE" d="M12.839 8.415c.104-.049.122-.121.08-.227-.039-.101-.05-.213-.089-.313-.054-.138.004-.186.13-.198.22.142.416.313.605.492-.075.075-.027.154-.015.237.037.267.187.51.166.788l-.877-.779z"/><path fill="#B6BEC2" d="M13.715 9.194c.022-.279-.129-.521-.166-.788-.011-.083-.06-.162.015-.237l.677.543c-.106.081-.053.178-.035.277.052.29.188.564.172.867l-.663-.662z"/><path fill="#D9DDDE" d="M20.568 11.382l-.597-.005-.215-.868a.445.445 0 0 1 .328-.104c.089.007.191.028.249-.078.128.34.172.7.235 1.055z"/><path fill="#B6BEC2" d="M10.288 11.385c.029.313.281.511.402.777.069.15.21.266.213.448a3.878 3.878 0 0 1-.719-.37c-.038-.295-.242-.508-.374-.756-.042-.079-.15-.176.031-.228l.447.129z"/><path fill="#50575B" d="M9.527 20.078c-.208.091-.441.137-.597.326l-.526-.123-.051-.72c.281.02.496.202.743.306.146.063.287.14.431.211z"/><path fill="#B6BEC2" d="M5.894 19.551c.088.242-.004.483-.005.724l-.4.021c-.138-.169-.276-.34-.415-.508-.114-.137-.103-.233.092-.24.242-.009.486-.035.728.003z"/><path fill="#202020" d="M12.495 13.331c-.186-.366-.484-.648-.733-.966-.261-.334-.542-.653-.815-.978-.03-.036-.039-.074-.023-.118.348.197.547.544.81.824.345.367.648.773.967 1.165.025.031.032.076.047.114-.087.003-.175.016-.253-.041z"/><path fill="#50575B" d="M21.15 19.575l.218.646c-.098.026-.125.097-.128.19a.349.349 0 0 1-.139.282c-.23-.306-.1-.65-.096-.979.001-.06.036-.155.145-.139z"/><path fill="#A6AEB4" d="M4.412 12.707c.123.03.23-.062.351-.05l-.119.711c-.402.104-.411.094-.307-.349.01-.045-.004-.103.055-.128.017-.028.054-.055.003-.085l.017-.099z"/><path fill="#B6BEC2" d="M8.353 19.561l.051.72-.316-.005c.002-.247-.127-.475-.108-.724a.685.685 0 0 1 .373.009zM7.797 6.968c.127.011.19.083.198.208a2.05 2.05 0 0 1-.403.375c-.089-.045-.157-.133-.268-.134.145-.162.293-.323.473-.449z"/><path fill="#A6AEB4" d="M7.324 7.417c.111.001.179.089.268.134a.432.432 0 0 1-.206.199c-.123-.046-.248.097-.37-.004.093-.118.185-.238.308-.329z"/><path fill="#50575B" d="M7.015 7.746c.122.101.247-.043.37.004l-.018.144-.523.091a.293.293 0 0 1 .171-.239z"/><path fill="#D9DDDE" d="M4.395 12.806c.052.03.014.057-.003.085l.003-.085z"/><path fill="#030303" d="M15.142 19.116c-.961-1.073-.311-2.94 1.148-3.267.849-.19 1.582.06 2.117.742.541.69.598 1.458.206 2.252-.058.117-.147.205-.226.303-.106-.316-.172-.339-.422-.146l-.252.13c-.414.179-.823.13-1.23-.028l-.449-.358c-.056-.134-.135-.145-.251-.063-.211.149-.427.29-.641.435zm.669-1.312a1.343 1.343 0 0 0 1.323 1.344 1.355 1.355 0 0 0 1.341-1.331 1.334 1.334 0 0 0-1.328-1.336 1.323 1.323 0 0 0-1.336 1.323z"/><path fill="#B6BEC2" d="M16.483 19.101c.406.159.816.207 1.23.028.038.174.188.277.267.425-.557.385-1.157.5-1.81.293.063-.265.191-.504.313-.746z"/><path fill="#D9DDDE" d="M16.483 19.101c-.122.241-.249.481-.313.747-.332-.086-.624-.241-.845-.51.268-.161.54-.317.71-.594l.448.357z"/><path fill="#B6BEC2" d="M16.034 18.743c-.17.277-.441.434-.71.594-.099-.043-.129-.142-.183-.222.214-.145.43-.286.641-.435.117-.082.197-.07.252.063z"/><path fill="#202020" d="M17.965 19c.25-.193.316-.17.422.146a.289.289 0 0 1-.205.216c-.069-.123-.186-.216-.217-.362z"/><path fill="#50575B" d="M17.965 19c.031.146.148.239.217.362l-.202.193c-.079-.148-.229-.252-.267-.425l.252-.13z"/></svg>